<svg width="70" height="166" viewBox="0 0 70 166" fill="none" xmlns="http://www.w3.org/2000/svg">
<path d="M33.0667 36C39.8667 25.2 48.4001 30 51.5667 34C56.2334 40.5 66.1667 54.5 68.5667 58.5C70.9667 62.5 69.5667 66.1667 68.5667 67.5L44.0667 82L31.5667 130.5L37.5667 137.5C44.5667 144.5 36.0667 153.866 28.0667 145.866L23.0667 161C20.7892 169.5 8.06674 166.5 10.5667 157L17.0667 134L2.06674 116C-0.933258 113 -0.433253 110.5 2.06674 107.5L24.0667 75L33.0667 36Z" fill="white"/>
<path d="M27.0667 93.5L15.0667 111L21.5667 117.5L27.0667 93.5Z" fill="black"/>
<path d="M48.5667 65.5L51.0667 54L56.0667 61L48.5667 65.5Z" fill="black"/>
<path d="M54.5667 12.5C54.5667 19.4036 48.9703 25 42.0667 25C35.1632 25 29.5667 19.4036 29.5667 12.5C29.5667 5.59644 35.1632 0 42.0667 0C48.9703 0 54.5667 5.59644 54.5667 12.5Z" fill="white"/>
</svg>
